# xmcd CD database file
#
# Track frame offsets:
#	150
#	20355
#	37520
#	52895
#	72190
#	86335
#	104490
#	118995
#	135050
#	157345
#	182055
#	201450
#	223720
#	254510
#	277985
#	313105
#
# Disc length: 4538 seconds
#
# Revision: 3
# Processed by: cddbd v1.5.2PL0 Copyright (c) Steve Scherf et al.
# Submitted via: CDex 1.51
#
DISCID=e111b810
DTITLE=Damageplan - New Found Power
DYEAR=2004
DGENRE=Heavy Metal
TTITLE0=Wake Up
TTITLE1=Breathing New Life
TTITLE2=New Found Power
TTITLE3=Pride
TTITLE4=Fuck You
TTITLE5=Reborn
TTITLE6=Explode
TTITLE7=Save Me
TTITLE8=Cold Blooded
TTITLE9=Crawl
TTITLE10=Blink Of An Eye
TTITLE11=Blunt Force Trauma
TTITLE12=Moment Of Truth
TTITLE13=Soul Bleed
TTITLE14=Ashes
TTITLE15=(VIDEO)
EXTD=YEAR: 2004
EXTT0=
EXTT1=
EXTT2=
EXTT3=
EXTT4=
EXTT5=
EXTT6=
EXTT7=
EXTT8=
EXTT9=
EXTT10=
EXTT11=
EXTT12=
EXTT13=
EXTT14=
EXTT15=
PLAYORDER=
